<svg width="18" height="20" viewBox="0 0 18 20" fill="none" xmlns="http://www.w3.org/2000/svg">
<g id="elements">
<path id="Vector" d="M13.25 17.8571V19M13.25 17.8571C12.2378 17.8571 11.3461 17.3521 10.823 16.5852M13.25 17.8571C14.2622 17.8571 15.1539 17.3521 15.677 16.5852M13.25 12.1429C14.2623 12.1429 15.1541 12.648 15.6771 13.415M13.25 12.1429C12.2377 12.1429 11.3459 12.648 10.8229 13.415M13.25 12.1429V11M16.75 12.7143L15.6771 13.415M9.75037 17.2857L10.823 16.5852M9.75 12.7143L10.8229 13.415M16.7496 17.2857L15.677 16.5852M15.6771 13.415C15.9864 13.8685 16.1667 14.4136 16.1667 15C16.1667 15.5864 15.9863 16.1316 15.677 16.5852M10.8229 13.415C10.5136 13.8685 10.3333 14.4136 10.3333 15C10.3333 15.5864 10.5137 16.1316 10.823 16.5852" stroke="#999999" stroke-width="1.5" stroke-linecap="round"/>
<path id="Vector 7608" d="M0.75 1L16.75 1" stroke="#999999" stroke-width="1.5" stroke-linecap="round"/>
<path id="Vector 7609" d="M0.75 7L16.75 7" stroke="#999999" stroke-width="1.5" stroke-linecap="round"/>
<path id="Vector 7610" d="M0.75 13L5.75 13" stroke="#999999" stroke-width="1.5" stroke-linecap="round"/>
</g>
</svg>
