<svg width="19" height="22" viewBox="0 0 19 22" fill="none" xmlns="http://www.w3.org/2000/svg">
<g id="elements">
<path id="Vector" d="M14.25 1V3M9.25 1V3M4.25 1L4.25 3" stroke="#999999" stroke-width="1.5" stroke-linecap="round" stroke-linejoin="round"/>
<path id="Rectangle 17840" d="M0.75 9C0.75 5.70017 0.75 4.05025 1.77513 3.02513C2.80025 2 4.45017 2 7.75 2L10.75 2C14.0498 2 15.6997 2 16.7249 3.02513C17.75 4.05025 17.75 5.70017 17.75 9L17.75 14C17.75 17.2998 17.75 18.9497 16.7249 19.9749C15.6997 21 14.0498 21 10.75 21L7.75 21C4.45017 21 2.80025 21 1.77513 19.9749C0.75 18.9497 0.75 17.2998 0.75 14L0.75 9Z" stroke="#999999" stroke-width="1.5" stroke-linecap="round" stroke-linejoin="round"/>
<path id="Vector 3076" d="M10.75 15H14.25" stroke="#999999" stroke-width="1.5" stroke-linecap="round"/>
<path id="Vector 3077" d="M10.75 8H14.25" stroke="#999999" stroke-width="1.5" stroke-linecap="round"/>
<path id="Vector 6664" d="M4.25 9C4.25 9 4.75 9 5.25 10C5.25 10 6.83824 7.5 8.25 7" stroke="#999999" stroke-width="1.5" stroke-linecap="round" stroke-linejoin="round"/>
<path id="Vector 6665" d="M4.25 16C4.25 16 4.75 16 5.25 17C5.25 17 6.83824 14.5 8.25 14" stroke="#999999" stroke-width="1.5" stroke-linecap="round" stroke-linejoin="round"/>
</g>
</svg>
