<svg width="25" height="24" viewBox="0 0 25 24" fill="none" xmlns="http://www.w3.org/2000/svg">
<g id="play">
<path id="Icon" d="M5.25 4.98951C5.25 4.01835 5.25 3.53277 5.45249 3.2651C5.62889 3.03191 5.89852 2.88761 6.1904 2.87018C6.52544 2.85017 6.92946 3.11953 7.73752 3.65823L18.2531 10.6686C18.9208 11.1137 19.2546 11.3363 19.3709 11.6168C19.4727 11.8621 19.4727 12.1377 19.3709 12.383C19.2546 12.6635 18.9208 12.886 18.2531 13.3312L7.73752 20.3415C6.92946 20.8802 6.52544 21.1496 6.1904 21.1296C5.89852 21.1122 5.62889 20.9679 5.45249 20.7347C5.25 20.467 5.25 19.9814 5.25 19.0103V4.98951Z" stroke="#999999" stroke-width="1.5" stroke-linecap="round" stroke-linejoin="round"/>
</g>
</svg>
