<svg width="25" height="24" viewBox="0 0 25 24" fill="none" xmlns="http://www.w3.org/2000/svg">
<g id="vuesax/linear/people">
<path id="Vector" d="M18.75 7.16C18.69 7.15 18.62 7.15 18.56 7.16C17.18 7.11 16.08 5.98 16.08 4.58C16.08 3.15 17.23 2 18.66 2C20.09 2 21.24 3.16 21.24 4.58C21.23 5.98 20.13 7.11 18.75 7.16Z" stroke="#999999" stroke-width="1.5" stroke-linecap="round" stroke-linejoin="round"/>
<path id="Vector_2" d="M17.7199 14.4402C19.0899 14.6702 20.5999 14.4302 21.6599 13.7202C23.0699 12.7802 23.0699 11.2402 21.6599 10.3002C20.5899 9.59016 19.0599 9.35016 17.6899 9.59016" stroke="#999999" stroke-width="1.5" stroke-linecap="round" stroke-linejoin="round"/>
<path id="Vector_3" d="M6.71998 7.16C6.77998 7.15 6.84998 7.15 6.90998 7.16C8.28998 7.11 9.38998 5.98 9.38998 4.58C9.38998 3.15 8.23998 2 6.80998 2C5.37998 2 4.22998 3.16 4.22998 4.58C4.23998 5.98 5.33998 7.11 6.71998 7.16Z" stroke="#999999" stroke-width="1.5" stroke-linecap="round" stroke-linejoin="round"/>
<path id="Vector_4" d="M7.74994 14.4402C6.37994 14.6702 4.86994 14.4302 3.80994 13.7202C2.39994 12.7802 2.39994 11.2402 3.80994 10.3002C4.87994 9.59016 6.40994 9.35016 7.77994 9.59016" stroke="#999999" stroke-width="1.5" stroke-linecap="round" stroke-linejoin="round"/>
<path id="Vector_5" d="M12.75 14.6297C12.69 14.6197 12.62 14.6197 12.56 14.6297C11.18 14.5797 10.08 13.4497 10.08 12.0497C10.08 10.6197 11.23 9.46973 12.66 9.46973C14.09 9.46973 15.24 10.6297 15.24 12.0497C15.23 13.4497 14.13 14.5897 12.75 14.6297Z" stroke="#999999" stroke-width="1.5" stroke-linecap="round" stroke-linejoin="round"/>
<path id="Vector_6" d="M9.83997 17.7804C8.42997 18.7204 8.42997 20.2603 9.83997 21.2003C11.44 22.2703 14.06 22.2703 15.66 21.2003C17.07 20.2603 17.07 18.7204 15.66 17.7804C14.07 16.7204 11.44 16.7204 9.83997 17.7804Z" stroke="#999999" stroke-width="1.5" stroke-linecap="round" stroke-linejoin="round"/>
</g>
</svg>
